<svg xmlns="http://www.w3.org/2000/svg" viewBox="0 0 296 465"><style>.a{fill:#15353A;opacity:0.2;}.b{fill:#3C2415;}.c{fill:#99D6D0;}</style><ellipse cx="143.9" cy="454.5" rx="33.8" ry="4.5" class="a"/><ellipse cx="143.9" cy="455.1" rx="24.8" ry="2.8" class="a"/><ellipse cx="192.8" cy="454.2" rx="13.8" ry="1.8" class="a"/><path d="M177.1 417.6l-0.2 0.3 -0.3-0.1 0.1-0.7 -0.3 0.6 -0.3-0.1 -0.7 0.8c-0.3 0.2-0.4 0.4-0.4 0.7 0 0.5 0.1 1 0.1 1.5 0.1 1-0.4 1-1.1 0.6 -0.4 0.2-0.4 0.6-0.6 0.9l-0.4 0 0 0.3 -0.3 0.1c-0.3 0.1-0.5 0.1-0.5 0.3 0 0.1 0 0.3-0.1 0.4 -0.1 0.7-0.8 0.6-1.4 0.5 -0.9-0.2-1.7-0.7-2.5-1.1 1 1 1.7 1.9 2.3 3 1 1.8 1.7 3.3 3.4 4.7 0.2 0.2 0.4 0.4 0.4 0.7 0.4 0.2 0.6 0.3 1-0.1 1.4-1.3 2.9-2.4 4.9-1.8 1.4 0.4 2.3 1.4 3.7 2.3 2.8-0.8 2.4 1.4 3.3 3 0.6 1 1.5 1.8 2.3 2.8 2.9 3.4 6.6 7.8 10.6 9.6 0.5 0.2 1.1 0.5 1.2 0.9 0 0.4 0.1 0.6 0.4 0.9 0.6 0 1.1 0.2 1.6 0.2 1.1 0 2.1-0.2 3.2-0.1 2.3 2.2-1.5 4-3.5 4.4 -1.4 0.3-3 0.2-4.8 0.4 -0.2 0.4-0.4 0.8-0.6 1.1 -1.6 0.2-3 0.3-4.6 0.3l-0.3-0.7 -0.3-0.7c-0.9 0-1 0.2-1.5-0.7 -1.4-2.8-2.2-4.1-5.1-5.9 -1.8-1.1-3.6-2.3-5-3.7 -0.7-0.7-1-0.7-2.3 0.1 -2.9 1.8-5.4 4.7-8 6.8 -3.1 2.6-6.2 5-10.4 5.2 -3.1 0.2-5.8-0.5-7.6-3.7 -0.8-1.4-1.3-2.9-1.6-4.7 -0.5-0.4-0.8-0.6-0.9-1.3 -0.1-1.3 0.4-2.7 0.8-4 0.3-0.9 0.5-1.9 0.7-2.7 0.7-3.9 0.9-7.5 2.1-11.2 0.7-2.2 1.8-4.1 3.8-6.2 -0.5 0-0.6 0-0.4-0.6 0-0.1 0.2-0.3 0.3-0.4 -0.9 0.6-0.1-0.3 0.6-1 1.5-1.6 3.1-2.4 4.3-4.1 2.2-3.2 2.1-6.1 4.9-7.4 1.9-0.9 4.2-0.9 5.8-0.3 2.1 0.8 3.5 2.6 4.3 4.5C178 414.2 177.7 415.6 177.1 417.6L177.1 417.6zM165.2 439.5c1.7-0.5 2.9-1.6 4.3-2.7 0.7-0.6 0.6-0.9 0.2-1.4 -0.5-0.6-1.7-1.5-2.6-2.1 -0.6-0.4-1.1 0.4-1.3 1.5C165.3 436.4 165.2 437.9 165.2 439.5z" class="b"/><path d="M150.5 79.4c-0.5-1.8-0.8-3.6-0.8-5.5 0-10.5 8.5-19 19-19 7.6 0 14.1 4.4 17.1 10.8 2.9-3.1 7-5 11.6-5 8.9 0 16.1 7.2 16.1 16.1 0 0.9-0.1 1.7-0.2 2.6h3.3c7.7 0 14 6.3 14 14 0 7.7-6.3 14-14 14h-65c-7.7 0-14-6.3-14-14C137.5 86 143.2 79.9 150.5 79.4z" fill="#A5D08B"/><path d="M86.6 111.7c1.3 0 2.6 0.1 3.8 0.3 3.4-11.1 13.7-19.2 26-19.2 3 0 5.9 0.5 8.6 1.4 3.9-9.5 13.2-16.2 24.2-16.2 14.1 0 25.6 11.2 26.1 25.2 6.1 4 10.5 10.5 11.6 18.1 0.6-0.1 1.3-0.1 1.9-0.1 10 0 18 8.1 18 18 0 10-8.1 18-18 18 -0.6 0-1.1 0-1.7-0.1v0.1H87.1v0c-0.2 0-0.3 0-0.5 0 -12.6 0-22.7-10.2-22.7-22.7C63.8 121.9 74 111.7 86.6 111.7z" fill="#87C9A2"/><path d="M112 245.4c2.6 0 5.2 0.5 7.5 1.4 1.7-3.4 4.6-6.1 8.1-7.7 -0.3-5.4 1.1-11 4.6-15.7 7.9-10.9 23-13.3 33.9-5.4 5.5 3.9 8.8 9.7 9.8 15.9 1.1-0.2 2.3-0.3 3.5-0.3 12.3 0 22.5 9.2 24.1 21.1 1.2-0.3 2.4-0.4 3.7-0.4 9.3 0 16.8 7.5 16.8 16.8 0 9.3-7.5 16.8-16.8 16.8 -0.5 0-1 0-1.6-0.1v0.1H112.5v0c-0.2 0-0.3 0-0.5 0 -11.7 0-21.2-9.5-21.2-21.2C90.9 254.8 100.4 245.4 112 245.4z" fill="#3E9162"/><path d="M32.3 143.2c3.5 0 6.8 0.6 9.8 1.8 3.7-7.3 11.3-12.2 20-12.2 3 0 5.9 0.6 8.6 1.7 4.6-12.1 16.2-20.6 29.8-20.6 11.1 0 20.8 5.7 26.6 14.2 1.7-0.3 3.5-0.5 5.3-0.5 16.4 0 29.9 12.4 31.7 28.3 8.7 2.9 15.1 11.2 15.1 20.9 0 12.2-9.9 22-22 22 -0.7 0-1.4 0-2-0.1v0.1H33v0c-0.2 0-0.4 0-0.6 0 -15.4 0-27.8-12.4-27.8-27.8C4.5 155.6 17 143.2 32.3 143.2z" fill="#3EA869"/><path d="M182.9 77.1c0.3-1.3 0.4-2.6 0.4-4 0-10.9-8.9-19.8-19.8-19.8 -4 0-7.7 1.2-10.9 3.3 -3.3-12.8-14.9-22.4-28.8-22.4 -13.6 0-25 9.1-28.6 21.5 -12.2 1.8-21.6 12.3-21.7 24.9 -5.1 3.7-8.5 9.7-8.5 16.5 0 11.2 9.1 20.4 20.4 20.4h94.5c11.2 0 20.3-9.1 20.3-20.3C200.3 87 192.8 78.6 182.9 77.1z" fill="#00A79D"/><path d="M267.2 159.1c0.9-3 1.4-6.3 1.4-9.6 0-18.2-14.8-32.9-32.9-32.9 -13.1 0-24.4 7.7-29.7 18.8 -5.1-5.3-12.2-8.6-20.1-8.6 -15.4 0-27.9 12.5-27.9 27.9 0 1.5 0.2 3 0.4 4.4h-5.7c-13.4 0-24.3 10.9-24.3 24.3 0 13.4 10.9 24.3 24.3 24.3h112.8c13.4 0 24.3-10.9 24.3-24.3C289.8 170.5 279.8 160 267.2 159.1z" fill="#8FCA77"/><path d="M152.9 195.8c-0.7-2.4-1.1-4.9-1.1-7.5 0-14.2 11.5-25.7 25.7-25.7 10.2 0 19.1 6 23.2 14.7 4-4.1 9.5-6.7 15.7-6.7 12 0 21.8 9.7 21.8 21.8 0 1.2-0.1 2.3-0.3 3.5h4.4c10.5 0 19 8.5 19 19 0 10.5-8.5 19-19 19h-88.1c-10.5 0-19-8.5-19-19C135.3 204.7 143.1 196.5 152.9 195.8z" fill="#68AD45"/><path d="M154.8 273.3c0 0 9.2-9.1 21.1-63l3.4-5.2c0 0-9.2 58.5-26.9 81.2L154.8 273.3z" class="b"/><path d="M152.4 236l-54.3-62.9 -6.3-2.4c0 0 51.9 68.6 60.6 74.9V236z" class="b"/><path d="M154.2 149.8l-21.8-42.7 -2.5-1.6c0 0 20.8 46.6 24.3 50.8V149.8z" class="b"/><path d="M147.4 283.9c0 0-18.6 149.4-20.2 172h25.3c0 0-4.5-83.4 0-150.1L147.4 283.9z" class="b"/><path d="M66.4 218.8c-0.7-2.2-1-4.5-1-6.9 0-13 10.6-23.6 23.6-23.6 9.4 0 17.5 5.5 21.3 13.4 3.6-3.8 8.7-6.2 14.4-6.2 11 0 20 8.9 20 20 0 1.1-0.1 2.1-0.3 3.2h4.1c9.6 0 17.4 7.8 17.4 17.4 0 9.6-7.8 17.4-17.4 17.4h-80.8c-9.6 0-17.4-7.8-17.4-17.4C50.2 226.9 57.4 219.4 66.4 218.8z" fill="#39B54A"/><path d="M195.3 27.3c-0.8 0-1.5 0.1-2.3 0.2 -2-6.7-8.3-11.6-15.7-11.6 -1.8 0-3.6 0.3-5.2 0.9 -2.4-5.8-8-9.8-14.6-9.8 -8.5 0-15.5 6.8-15.8 15.2 -3.7 2.4-6.3 6.4-7 10.9 -0.4 0-0.8-0.1-1.2-0.1 -6 0-10.9 4.9-10.9 10.9 0 6 4.9 10.9 10.9 10.9 0.3 0 0.7 0 1-0.1v0.1h60.4v0c0.1 0 0.2 0 0.3 0 7.6 0 13.8-6.2 13.8-13.8C209.1 33.5 202.9 27.3 195.3 27.3z" fill="#5DC4B8"/><path d="M129.9 455.9c20.8-142 22.3-284.7 21.6-378.4 -0.6-75.3-1.7-52.8-1.7-52.8v0c0 0 22.7 175.1-10.5 431.2H129.9z" class="b"/><path d="M231.4 107.3c-2 0-3.9 0.4-5.7 1 -0.3-0.7-0.7-1.3-1.2-1.8 1.2-2.3 1.9-4.8 1.9-7.6 0-8.8-7.2-16-16-16 -7.9 0-14.4 5.7-15.7 13.2 -0.8-0.2-1.7-0.3-2.6-0.3 -3.9 0-7.5 1.8-9.8 4.6 -2.5-1.3-5.4-2.1-8.5-2.1 -9.4 0-17.2 7.1-18.2 16.2 -5 1.7-8.7 6.4-8.7 12 0 7 5.7 12.7 12.7 12.7 0.4 0 0.8 0 1.2-0.1v0.1h70.2v0c0.1 0 0.2 0 0.4 0 8.8 0 16-7.2 16-16C247.4 114.5 240.2 107.3 231.4 107.3z" fill="#43B696"/><path d="M181 66c-49.4 244-47.3 389.8-47.3 389.8h11.7C145.4 455.9 140 310.1 181 66L181 66z" class="b"/><path d="M69.5 261c0 0-4.6 12.4 0 12.4C74 273.3 69.5 261 69.5 261z" class="c"/><path d="M207 143.7c0 0-4.6 12.4 0 12.4C211.6 156.1 207 143.7 207 143.7z" class="c"/><path d="M108 139.3c0 0-4.6 12.4 0 12.4C112.6 151.7 108 139.3 108 139.3z" class="c"/><path d="M232.6 147.4c0 0-4.6 12.4 0 12.4C237.2 159.8 232.6 147.4 232.6 147.4z" class="c"/><path d="M94.5 317.8c0 0-4.6 12.4 0 12.4C99.1 330.2 94.5 317.8 94.5 317.8z" class="c"/><path d="M137.1 59.9c0 0-3.8 10.3 0 10.3S137.1 59.9 137.1 59.9z" class="c"/><path d="M22.3 292.5c0 0-4.6 12.4 0 12.4S22.3 292.5 22.3 292.5z" class="c"/><path d="M31.4 208.4c0 0-4.6 12.4 0 12.4C35.9 220.7 31.4 208.4 31.4 208.4z" class="c"/><path d="M143.6 250.5c0 0-4.6 12.4 0 12.4C148.2 262.9 143.6 250.5 143.6 250.5z" class="c"/><path d="M197.2 176.6c0 0-4.6 12.4 0 12.4C201.7 189 197.2 176.6 197.2 176.6z" class="c"/><path d="M129.9 261c0 0-4.6 12.4 0 12.4C134.5 273.3 129.9 261 129.9 261z" class="c"/><path d="M176.2 261c0 0-4.6 12.4 0 12.4S176.2 261 176.2 261z" class="c"/><path d="M114.6 247.3c0 0-4.6 12.4 0 12.4C119.1 259.7 114.6 247.3 114.6 247.3z" class="c"/><path d="M269.7 219.8c0 0-4.6 12.4 0 12.4C274.3 232.2 269.7 219.8 269.7 219.8z" class="c"/><path d="M92.5 120.6c0 0-4.6 12.4 0 12.4C97.1 133 92.5 120.6 92.5 120.6z" class="c"/><path d="M78.6 296c0 0-4.6 12.4 0 12.4C83.2 308.4 78.6 296 78.6 296z" class="c"/><path d="M210.5 280.1c0 0-4.6 12.4 0 12.4C215 292.5 210.5 280.1 210.5 280.1z" class="c"/><path d="M255.3 262.6c0 0-4.6 12.4 0 12.4C259.8 275 255.3 262.6 255.3 262.6z" class="c"/><path d="M214.5 244.3c0 0-4.6 12.4 0 12.4C219.1 256.7 214.5 244.3 214.5 244.3z" class="c"/><path d="M165.8 228.9c0 0-4.6 12.4 0 12.4C170.3 241.3 165.8 228.9 165.8 228.9z" class="c"/><path d="M78.6 130.9c0 0-4.6 12.4 0 12.4C83.2 143.3 78.6 130.9 78.6 130.9z" class="c"/><path d="M59.1 193.5c0 0-4.6 12.4 0 12.4C63.6 205.9 59.1 193.5 59.1 193.5z" class="c"/><path d="M190.6 110.6c0 0-4.6 12.4 0 12.4C195.2 123 190.6 110.6 190.6 110.6z" class="c"/><path d="M132.7 118.5c0 0-4.6 12.4 0 12.4C137.3 130.9 132.7 118.5 132.7 118.5z" class="c"/><path d="M103 286.3c0 0-4.6 12.4 0 12.4C107.6 298.7 103 286.3 103 286.3z" class="c"/><path d="M165.9 302.2c0 0-4.6 12.4 0 12.4C170.4 314.5 165.9 302.2 165.9 302.2z" class="c"/><path d="M212.5 192.6c0 0-4.6 12.4 0 12.4C217.1 205 212.5 192.6 212.5 192.6z" class="c"/><path d="M87.6 218.2c0 0-4.6 12.4 0 12.4C92.2 230.6 87.6 218.2 87.6 218.2z" class="c"/><path d="M225.3 214.5c0 0-4.6 12.4 0 12.4C229.9 226.9 225.3 214.5 225.3 214.5z" class="c"/><path d="M137.1 157.3c0 0-4.6 12.4 0 12.4C141.7 169.7 137.1 157.3 137.1 157.3z" class="c"/><path d="M186 147.4c0 0-4.6 12.4 0 12.4C190.6 159.8 186 147.4 186 147.4z" class="c"/><path d="M86.1 271.6c0 0-3.4 9.1 0 9.1C89.5 280.7 86.1 271.6 86.1 271.6z" class="c"/><path d="M71.5 229.2c0 0-3.4 9.1 0 9.1C74.9 238.3 71.5 229.2 71.5 229.2z" class="c"/><path d="M171.2 71.4c0 0-3.4 9.1 0 9.1C174.6 80.5 171.2 71.4 171.2 71.4z" class="c"/><path d="M177.7 166.2c0 0-3.4 9.1 0 9.1C181 175.3 177.7 166.2 177.7 166.2z" class="c"/><path d="M51.7 286.3c0 0-3.4 9.1 0 9.1C55.1 295.4 51.7 286.3 51.7 286.3z" class="c"/><path d="M235.6 292.5c0 0-3.4 9.1 0 9.1S235.6 292.5 235.6 292.5z" class="c"/><path d="M163.8 340.7c0 0-3.4 9.1 0 9.1C167.1 349.8 163.8 340.7 163.8 340.7z" class="c"/><path d="M200.3 303.8c0 0-3.4 9.1 0 9.1S200.3 303.8 200.3 303.8z" class="c"/><path d="M234.1 236.6c0 0-3.4 9.1 0 9.1C237.5 245.7 234.1 236.6 234.1 236.6z" class="c"/><path d="M147 81.7c0 0-3.4 9.1 0 9.1C150.3 90.8 147 81.7 147 81.7z" class="c"/><path d="M128.4 291.4c0 0-3.4 9.1 0 9.1C131.7 300.5 128.4 291.4 128.4 291.4z" class="c"/><path d="M50.2 213.5c0 0-3.4 9.1 0 9.1C53.6 222.6 50.2 213.5 50.2 213.5z" class="c"/><path d="M277.5 205.9c0 0-3.4 9.1 0 9.1C280.9 215 277.5 205.9 277.5 205.9z" class="c"/><path d="M241.9 262.6c0 0-3.4 9.1 0 9.1S241.9 262.6 241.9 262.6z" class="c"/><path d="M155.9 273.6c0 0-3.4 9.1 0 9.1C159.2 282.8 155.9 273.6 155.9 273.6z" class="c"/><path d="M191.9 236.6c0 0-3.4 9.1 0 9.1C195.2 245.7 191.9 236.6 191.9 236.6z" class="c"/><path d="M205 92.3c0 0-3.4 9.1 0 9.1C208.4 101.4 205 92.3 205 92.3z" class="c"/><path d="M182.5 291.4c0 0-3.4 9.1 0 9.1C185.9 300.5 182.5 291.4 182.5 291.4z" class="c"/><path d="M191.9 200.5c0 0-3.4 9.1 0 9.1C195.2 209.6 191.9 200.5 191.9 200.5z" class="c"/><path d="M103 172.4c0 0-3.4 9.1 0 9.1C106.4 181.5 103 172.4 103 172.4z" class="c"/><path d="M157.4 56.9c0 0-3.4 9.1 0 9.1C160.7 66 157.4 56.9 157.4 56.9z" class="c"/><path d="M92.5 188.9c0 0-3.4 9.1 0 9.1S92.5 188.9 92.5 188.9z" class="c"/><path d="M39.2 236.5c0 0-3.4 9.1 0 9.1C42.5 245.7 39.2 236.5 39.2 236.5z" class="c"/><path d="M162.3 381.7c0 0-4.6 12.4 0 12.4C166.8 394.1 162.3 381.7 162.3 381.7z" class="c"/><path d="M180 321.6c0 0-2.7 7.2 0 7.2C182.7 328.9 180 321.6 180 321.6z" class="c"/><path d="M189.7 349.8c0 0-3.4 9.1 0 9.1C193.1 358.9 189.7 349.8 189.7 349.8z" class="c"/><path d="M84.6 158.1c0 0-3.4 9.1 0 9.1C88 167.2 84.6 158.1 84.6 158.1z" class="c"/><path d="M223.8 170.8c0 0-3.4 9.1 0 9.1C227.2 179.9 223.8 170.8 223.8 170.8z" class="c"/><path d="M212.5 120.6c0 0-3.4 9.1 0 9.1C215.9 129.7 212.5 120.6 212.5 120.6z" class="c"/><path d="M240.4 201.3c0 0-3.4 9.1 0 9.1S240.4 201.3 240.4 201.3z" class="c"/><path d="M191.9 55.3c0 0-3.4 9.1 0 9.1C195.2 64.4 191.9 55.3 191.9 55.3z" class="c"/><path d="M122.1 200.5c0 0-3.4 9.1 0 9.1S122.1 200.5 122.1 200.5z" class="c"/><path d="M126.9 140.9c0 0-3.4 9.1 0 9.1C130.2 150 126.9 140.9 126.9 140.9z" class="c"/><path d="M167.9 139.1c0 0-3.4 9.1 0 9.1C171.2 148.2 167.9 139.1 167.9 139.1z" class="c"/><path d="M113.1 268.8c0 0-3.4 9.1 0 9.1C116.4 277.9 113.1 268.8 113.1 268.8z" class="c"/><path d="M205 234.1c0 0-3.4 9.1 0 9.1C208.4 243.2 205 234.1 205 234.1z" class="c"/><path d="M193.4 77.1c0 0-3.4 9.1 0 9.1S193.4 77.1 193.4 77.1z" class="c"/><path d="M165.8 116c0 0-3.4 9.1 0 9.1C169.1 125.1 165.8 116 165.8 116z" class="c"/><path d="M125.4 92.3c0 0-3.4 9.1 0 9.1C128.8 101.4 125.4 92.3 125.4 92.3z" class="c"/><path d="M154.2 172.4c0 0-3.4 9.1 0 9.1C157.6 181.5 154.2 172.4 154.2 172.4z" class="c"/><path d="M143.6 193.6c0 0-3.4 9.1 0 9.1C147 202.7 143.6 193.6 143.6 193.6z" class="c"/><path d="M120.6 172.4c0 0-3.4 9.1 0 9.1C124 181.5 120.6 172.4 120.6 172.4z" class="c"/><path d="M132.7 313.2c0 0-3.4 9.1 0 9.1S132.7 313.2 132.7 313.2z" class="c"/><path d="M257.3 314.5c0 0-3.4 9.1 0 9.1S257.3 314.5 257.3 314.5z" class="c"/><path d="M219.3 317.5c0 0-4.6 12.4 0 12.4C223.9 329.9 219.3 317.5 219.3 317.5z" class="c"/><path d="M199.7 369.2c0 0-3.4 9.1 0 9.1S199.7 369.2 199.7 369.2z" class="c"/><path d="M188.1 406.1c0 0-2.1 5.7 0 5.7C190.2 411.8 188.1 406.1 188.1 406.1z" class="c"/><path d="M243.4 428.4c0 0-2.1 5.7 0 5.7C245.5 434.1 243.4 428.4 243.4 428.4z" class="c"/><path d="M191.4 436.9c0 0-1.5 4 0 4C192.9 441 191.4 436.9 191.4 436.9z" class="c"/><path d="M116.6 403.2c0 0-2.1 5.7 0 5.7C118.7 408.9 116.6 403.2 116.6 403.2z" class="c"/><path d="M181 136.3c0 0-2.1 5.7 0 5.7C183.1 142 181 136.3 181 136.3z" class="c"/><path d="M238.9 177c0 0-2.1 5.7 0 5.7C241 182.8 238.9 177 238.9 177z" class="c"/><path d="M221.3 147.2c0 0-2.1 5.7 0 5.7C223.4 152.9 221.3 147.2 221.3 147.2z" class="c"/><path d="M142.2 218c0 0-2.1 5.7 0 5.7C144.3 223.8 142.2 218 142.2 218z" class="c"/><path d="M137.1 102.6c0 0-2.1 5.7 0 5.7C139.2 108.3 137.1 102.6 137.1 102.6z" class="c"/><path d="M172.7 57c0 0-2.1 5.7 0 5.7S172.7 57 172.7 57z" class="c"/><path d="M158.8 206.7c0 0-2.1 5.7 0 5.7S158.8 206.7 158.8 206.7z" class="c"/><path d="M162.3 416c0 0-2.1 5.7 0 5.7C164.4 421.8 162.3 416 162.3 416z" class="c"/><path d="M205.9 339.3c0 0-3.4 9.1 0 9.1C209.3 348.5 205.9 339.3 205.9 339.3z" class="c"/><path d="M219.3 398.6c0 0-3.4 9.1 0 9.1C222.6 407.8 219.3 398.6 219.3 398.6z" class="c"/><path d="M225.3 358.9c0 0-3.4 9.1 0 9.1C228.7 368.1 225.3 358.9 225.3 358.9z" class="c"/><path d="M64.2 337.3c0 0-3.4 9.1 0 9.1C67.5 346.4 64.2 337.3 64.2 337.3z" class="c"/><path d="M43.6 355.1c0 0-2.4 6.5 0 6.5S43.6 355.1 43.6 355.1z" class="c"/><path d="M135.4 383.3c0 0-3.4 9.1 0 9.1C138.8 392.4 135.4 383.3 135.4 383.3z" class="c"/><path d="M121.1 348.1c0 0-3.4 9.1 0 9.1C124.5 357.2 121.1 348.1 121.1 348.1z" class="c"/><path d="M83.1 351c0 0-4.6 12.4 0 12.4C87.7 363.4 83.1 351 83.1 351z" class="c"/><path d="M142.2 354.4c0 0-3.4 9.1 0 9.1C145.5 363.5 142.2 354.4 142.2 354.4z" class="c"/><path d="M104.5 372.8c0 0-3.4 9.1 0 9.1C107.9 382 104.5 372.8 104.5 372.8z" class="c"/><path d="M69.5 421.8c0 0-3.4 9.1 0 9.1C72.8 430.9 69.5 421.8 69.5 421.8z" class="c"/><path d="M174.9 374.6c0 0-3.4 9.1 0 9.1C178.3 383.7 174.9 374.6 174.9 374.6z" class="c"/><path d="M122.1 226c0 0-3.4 9.1 0 9.1S122.1 226 122.1 226z" class="c"/><path d="M169.7 193.5c0 0-3.4 9.1 0 9.1S169.7 193.5 169.7 193.5z" class="c"/><path d="M95.9 258.6c0 0-3.1 8.6 0 8.6C99.1 267.1 95.9 258.6 95.9 258.6z" class="c"/><rect x="186.6" y="429.7" transform="matrix(0.1995 0.9799 -0.9799 0.1995 576.6957 162.3076)" width="4.9" height="8.8" style="fill:#FFF;stroke:#3A2316"/><rect x="184.4" y="432.4" transform="matrix(0.1995 0.9799 -0.9799 0.1995 575.4074 164.7575)" width="4.9" height="4.4" fill="#3A2316"/></svg>