<svg xmlns="http://www.w3.org/2000/svg" viewBox="0 0 31 31"><path d="M25.1 21.5c-0.1 0-0.2 0-0.3-0.1l-5.8-5.4c-0.2-0.2-0.2-0.5 0-0.7 0.2-0.2 0.5-0.2 0.7 0l5.8 5.4c0.2 0.2 0.2 0.5 0 0.7C25.4 21.5 25.2 21.5 25.1 21.5z"/><path d="M5.9 21.5c-0.1 0-0.3-0.1-0.4-0.2 -0.2-0.2-0.2-0.5 0-0.7l5.8-5.4c0.2-0.2 0.5-0.2 0.7 0 0.2 0.2 0.2 0.5 0 0.7l-5.8 5.4C6.1 21.5 6 21.5 5.9 21.5z"/><path d="M28.5 26.5H2.5c-1.4 0-2.5-1.1-2.5-2.5V7c0-1.4 1.1-2.5 2.5-2.5h26c1.4 0 2.5 1.1 2.5 2.5v17C31 25.4 29.9 26.5 28.5 26.5zM2.5 5.5c-0.8 0-1.5 0.7-1.5 1.5v17c0 0.8 0.7 1.5 1.5 1.5h26c0.8 0 1.5-0.7 1.5-1.5V7c0-0.8-0.7-1.5-1.5-1.5H2.5z"/><path d="M15.5 18c-0.7 0-1.3-0.2-1.8-0.7L0.8 6.2C0.6 6 0.6 5.7 0.8 5.4c0.2-0.2 0.5-0.2 0.7 0l12.8 11.2c0.6 0.6 1.7 0.6 2.4 0L29.5 5.4c0.2-0.2 0.5-0.2 0.7 0 0.2 0.2 0.2 0.5 0 0.7L17.3 17.4C16.8 17.8 16.2 18 15.5 18z"/></svg>