<svg xmlns="http://www.w3.org/2000/svg" height="30" viewBox="0 0 2932.5 500" >
<path class="a" d="M534.158,332.768c-1.53,0-3.061,0-4.591-1.53l-88.771-82.648c-3.061-3.061-3.061-7.652,0-10.713
	c3.062-3.061,7.652-3.061,10.714,0l88.77,82.647c3.061,3.062,3.061,7.652,0,10.714C538.75,332.768,535.688,332.768,534.158,332.768z
	"/>
<path class="a" d="M240.3,332.768c-1.53,0-4.591-1.53-6.122-3.061c-3.061-3.062-3.061-7.653,0-10.714l88.77-82.648
	c3.061-3.061,7.653-3.061,10.713,0c3.062,3.062,3.062,7.652,0,10.713l-88.77,82.648C243.361,332.768,241.831,332.768,240.3,332.768z
	"/>
<path class="a" d="M586.196,409.293H188.263c-21.427,0-38.263-16.835-38.263-38.263V110.844c0-21.427,16.836-38.263,38.263-38.263h397.933
	c21.427,0,38.263,16.836,38.263,38.263V371.03C624.459,392.458,607.623,409.293,586.196,409.293z M188.263,87.886
	c-12.245,0-22.958,10.714-22.958,22.958V371.03c0,12.244,10.713,22.958,22.958,22.958h397.933c12.244,0,22.957-10.714,22.957-22.958
	V110.844c0-12.244-10.713-22.958-22.957-22.958H188.263z"/>
<path class="a" d="M387.229,279.199c-10.714,0-19.897-3.061-27.549-10.713L162.244,98.6c-3.061-3.061-3.061-7.653,0-12.245
	c3.061-3.061,7.652-3.061,10.713,0l195.906,171.417c9.183,9.184,26.019,9.184,36.731,0L601.501,86.355
	c3.061-3.061,7.652-3.061,10.714,0c3.061,3.062,3.061,7.653,0,10.714L414.778,270.016
	C407.126,276.139,397.943,279.199,387.229,279.199z"/>
<text class="a" transform="matrix(1 0 0 1 660 352.5)" font-family="'helvetica'" font-size="318" letter-spacing="-5">Get free updates</text>
     <style>.a{fill: #6a9fb5}</style></svg>